<svg width="48" height="48" viewBox="0 0 48 48" fill="none" xmlns="http://www.w3.org/2000/svg">
<rect width="48" height="48" rx="24" fill="#23262F"/>
<path fill-rule="evenodd" clip-rule="evenodd" d="M25.3137 34.3726C24.8284 34.1716 24.4142 34 24 34C23.5858 34 23.1716 34.1716 22.6863 34.3726C22 34.6569 21.1716 35 20 35C17 35 15 29.9998 15 26C15 22.0002 16 18 20 18C21.0718 18 21.7128 18.2872 22.3078 18.5538C22.8231 18.7846 23.3038 19 24 19C24.6962 19 25.1769 18.7846 25.6922 18.5538C26.2872 18.2872 26.9282 18 28 18C30.2181 18 31.5138 19.2301 32.2279 21.0081L32.2336 21.0223C32.3336 21.2727 32.422 21.5339 32.5 21.8039C32.5876 22.1074 32.6619 22.4221 32.7243 22.7454C32.7503 22.8801 32.6372 23 32.5 23C31.1193 23 30 24.1193 30 25.5C30 26.8807 31.1193 28 32.5 28C32.6754 28 32.8243 28.1495 32.7946 28.3224C32.7171 28.7724 32.6185 29.2208 32.5 29.6602C32.4696 29.773 32.4378 29.8853 32.4048 29.9968L32.4041 29.999C31.599 32.7152 30.028 35 28 35C26.8284 35 26 34.6569 25.3137 34.3726ZM24 32C23.1714 32 22.4155 32.3174 22.0073 32.4887C21.3592 32.7608 20.713 33 20 33C19.7 33 18.9584 32.6947 18.1638 31.1055C17.4377 29.6533 17 27.7127 17 26C17 24.1022 17.2478 22.4766 17.7889 21.3945C18.0452 20.8817 18.3359 20.5548 18.6407 20.3516C18.9329 20.1568 19.35 20 20 20C20.3466 20 20.5903 20.0449 20.7842 20.1002C20.9968 20.1609 21.1841 20.2418 21.4901 20.379L21.5399 20.4013C22.0616 20.6356 22.8731 21 24 21C25.1269 21 25.9384 20.6356 26.4602 20.4013L26.5099 20.379C26.8159 20.2419 27.0032 20.1609 27.2158 20.1002C27.4097 20.0449 27.6534 20 28 20C28.7144 20 29.1538 20.1887 29.4605 20.424C29.7602 20.654 30.0486 21.0193 30.2966 21.5754C28.9259 22.3466 28 23.8152 28 25.5C28 27.2517 29.0008 28.7696 30.4618 29.5131C30.1105 30.6679 29.6292 31.6219 29.1142 32.2498C28.5826 32.898 28.1964 33 28 33C27.287 33 26.6408 32.7608 25.9927 32.4887C25.5845 32.3174 24.8286 32 24 32Z" fill="#FCFCFD"/>
<path d="M24 16.75C24 14.6789 25.6789 13 27.75 13C27.8881 13 28 13.1119 28 13.25C28 15.3211 26.3211 17 24.25 17C24.1119 17 24 16.8881 24 16.75Z" fill="#FCFCFD"/>
</svg>
