<svg width="24" height="26" viewBox="0 0 24 26" fill="none" xmlns="http://www.w3.org/2000/svg">
<path d="M7.35822 7.36856L6.60823 7.37237L6.60823 7.37237L7.35822 7.36856ZM7.33998 3.7762L7.78693 3.17393C7.5588 3.00463 7.25461 2.97876 7.00117 3.10709C6.74773 3.23543 6.58855 3.49593 6.58999 3.78001L7.33998 3.7762ZM10.2248 5.91702L9.77786 6.5193L9.77786 6.5193L10.2248 5.91702ZM18.8793 12.3395L18.8831 13.0895C19.206 13.0878 19.4915 12.8798 19.592 12.573C19.6926 12.2663 19.5855 11.9296 19.3263 11.7372L18.8793 12.3395ZM13.4908 12.3668L13.487 11.6169C13.227 11.6182 12.9863 11.754 12.8508 11.9758C12.7153 12.1976 12.7042 12.4738 12.8217 12.7057L13.4908 12.3668ZM16.7568 18.8167L17.0956 19.4858C17.4651 19.2987 17.613 18.8474 17.4259 18.4779L16.7568 18.8167ZM13.8902 20.2682L13.2211 20.607C13.3109 20.7845 13.4676 20.919 13.6566 20.9809C13.8456 21.0429 14.0515 21.0272 14.229 20.9373L13.8902 20.2682ZM10.6242 13.8184L11.2933 13.4796C11.1759 13.2477 10.9468 13.0931 10.6878 13.0711C10.4288 13.0491 10.1768 13.1627 10.0219 13.3715L10.6242 13.8184ZM7.41298 18.1457L6.66299 18.1495C6.66463 18.4723 6.87265 18.7578 7.17942 18.8584C7.4862 18.9589 7.82288 18.8518 8.01525 18.5926L7.41298 18.1457ZM8.10821 7.36476L8.08997 3.77239L6.58999 3.78001L6.60823 7.37237L8.10821 7.36476ZM6.89303 4.37848L9.77786 6.5193L10.6718 5.31474L7.78693 3.17393L6.89303 4.37848ZM9.77786 6.5193L18.4324 12.9418L19.3263 11.7372L10.6718 5.31474L9.77786 6.5193ZM18.8755 11.5895L13.487 11.6169L13.4946 13.1168L18.8831 13.0895L18.8755 11.5895ZM12.8217 12.7057L16.0876 19.1555L17.4259 18.4779L14.1599 12.028L12.8217 12.7057ZM16.4179 18.1476L13.5514 19.5991L14.229 20.9373L17.0956 19.4858L16.4179 18.1476ZM14.5593 19.9294L11.2933 13.4796L9.95509 14.1572L13.2211 20.607L14.5593 19.9294ZM10.0219 13.3715L6.8107 17.6987L8.01525 18.5926L11.2265 14.2653L10.0219 13.3715ZM8.16297 18.1418L8.10821 7.36475L6.60823 7.37237L6.66299 18.1495L8.16297 18.1418Z" fill="currentColor"/>
</svg>