<svg width="24" height="24" viewBox="0 0 24 24" fill="none" xmlns="http://www.w3.org/2000/svg">
<path d="M12 4.875C10.3279 4.875 8.80801 5.2136 7.70146 5.76688C6.60238 6.31641 5.875 7.09872 5.875 8V16C5.875 16.9013 6.60238 17.6836 7.70146 18.2331C8.80801 18.7864 10.3279 19.125 12 19.125C13.6721 19.125 15.192 18.7864 16.2985 18.2331C17.3976 17.6836 18.125 16.9013 18.125 16V8C18.125 7.09872 17.3976 6.31641 16.2985 5.76688C15.192 5.2136 13.6721 4.875 12 4.875ZM12 6.125C13.5201 6.125 14.8406 6.43546 15.7395 6.88491C16.704 7.36713 16.875 7.82604 16.875 8C16.875 8.17396 16.704 8.63287 15.7395 9.11509C14.8406 9.56454 13.5201 9.875 12 9.875C10.4799 9.875 9.15938 9.56454 8.26047 9.11509C7.29604 8.63287 7.125 8.17396 7.125 8C7.125 7.82604 7.29604 7.36713 8.26047 6.88491C9.15938 6.43546 10.4799 6.125 12 6.125ZM16.875 9.90052V12C16.875 12.2307 16.7586 12.4631 16.5212 12.6877C16.2835 12.9125 15.9328 13.1207 15.4891 13.2982C14.6024 13.6528 13.3689 13.875 12 13.875C10.6311 13.875 9.39759 13.6528 8.51089 13.2982C8.06719 13.1207 7.71652 12.9125 7.47881 12.6877C7.24137 12.4631 7.125 12.2307 7.125 12V9.90052C8.2465 10.6493 10.0187 11.125 12 11.125C13.9813 11.125 15.7535 10.6493 16.875 9.90052ZM7.125 16V13.9005C8.2465 14.6493 10.0187 15.125 12 15.125C13.9813 15.125 15.7535 14.6493 16.875 13.9005V16C16.875 16.174 16.704 16.6329 15.7395 17.1151C14.8406 17.5645 13.5201 17.875 12 17.875C10.4799 17.875 9.15938 17.5645 8.26047 17.1151C7.29604 16.6329 7.125 16.174 7.125 16Z" fill="currentColor" stroke="currentColor" stroke-width="0.25"/>
</svg>