<svg width="48" height="48" viewBox="0 0 48 48" fill="none" xmlns="http://www.w3.org/2000/svg">
<rect width="48" height="48" rx="24" fill="#E9FBFD"/>
<path d="M16.8591 14.0392C16.597 14.3526 16.4647 14.7543 16.4892 15.1621V32.8377C16.4646 33.2455 16.597 33.6472 16.8591 33.9606L16.9183 34.0182L26.8198 24.1167V23.8831L16.9183 13.9812L16.8591 14.0392Z" fill="url(#paint0_linear_14462_141784)"/>
<path d="M30.1187 27.4187L26.8184 24.1168V23.8831L30.1195 20.582L30.1939 20.6245L34.1043 22.8464C35.2213 23.481 35.2213 24.5193 34.1043 25.1543L30.1939 27.3762L30.1187 27.4187Z" fill="url(#paint1_linear_14462_141784)"/>
<path d="M30.1956 27.3758L26.8201 24L16.8594 33.9606C17.087 34.1614 17.3776 34.2761 17.6809 34.2851C17.9843 34.2941 18.2812 34.1966 18.5202 34.0097L30.1956 27.3758Z" fill="url(#paint2_linear_14462_141784)"/>
<path d="M30.1956 20.6241L18.5202 13.9902C18.2812 13.8033 17.9843 13.7058 17.6809 13.7148C17.3776 13.7238 17.087 13.8386 16.8594 14.0393L26.8201 24L30.1956 20.6241Z" fill="url(#paint3_linear_14462_141784)"/>
<path opacity="0.2" d="M30.1212 27.3015L18.5202 33.8929C18.2904 34.0679 18.0099 34.1634 17.721 34.1649C17.4321 34.1665 17.1506 34.074 16.9189 33.9015L16.8594 33.961L16.9185 34.0187L16.9189 34.0183C17.1506 34.1909 17.4321 34.2834 17.721 34.2818C18.0099 34.2803 18.2904 34.1848 18.5202 34.0097L30.1956 27.3758L30.1212 27.3015Z" fill="black"/>
<path opacity="0.12" d="M16.8591 33.8443C16.597 33.5309 16.4647 33.1292 16.4892 32.7214V32.8382C16.4647 33.246 16.597 33.6477 16.8591 33.961L16.9186 33.9015L16.8591 33.8443Z" fill="black"/>
<path opacity="0.12" d="M34.1059 25.0372L30.1211 27.3016L30.1955 27.3759L34.1059 25.154C34.336 25.0541 34.535 24.8945 34.6824 24.6916C34.8297 24.4887 34.92 24.25 34.9438 24.0004C34.8943 24.2264 34.7928 24.4378 34.6474 24.6178C34.502 24.7978 34.3166 24.9414 34.1059 25.0372Z" fill="black"/>
<path opacity="0.25" d="M18.521 14.1074L34.1068 22.9627C34.3175 23.0585 34.5029 23.2022 34.6484 23.3822C34.7938 23.5623 34.8953 23.7738 34.9446 24C34.921 23.7502 34.8308 23.5114 34.6834 23.3084C34.536 23.1055 34.3369 22.9457 34.1068 22.846L18.521 13.9906C17.404 13.3559 16.4902 13.8831 16.4902 15.1625V15.2793C16.4902 13.9999 17.404 13.4728 18.521 14.1074Z" fill="white"/>
<defs>
<linearGradient id="paint0_linear_14462_141784" x1="25.9417" y1="14.9757" x2="12.5289" y2="28.3886" gradientUnits="userSpaceOnUse">
<stop stop-color="#00A0FF"/>
<stop offset="0.00657" stop-color="#00A1FF"/>
<stop offset="0.2601" stop-color="#00BEFF"/>
<stop offset="0.5122" stop-color="#00D2FF"/>
<stop offset="0.7604" stop-color="#00DFFF"/>
<stop offset="1" stop-color="#00E3FF"/>
</linearGradient>
<linearGradient id="paint1_linear_14462_141784" x1="35.5586" y1="24.0003" x2="16.2199" y2="24.0003" gradientUnits="userSpaceOnUse">
<stop stop-color="#FFE000"/>
<stop offset="0.4087" stop-color="#FFBD00"/>
<stop offset="0.7754" stop-color="#FFA500"/>
<stop offset="1" stop-color="#FF9C00"/>
</linearGradient>
<linearGradient id="paint2_linear_14462_141784" x1="28.3614" y1="25.8343" x2="10.1725" y2="44.0232" gradientUnits="userSpaceOnUse">
<stop stop-color="#FF3A44"/>
<stop offset="1" stop-color="#C31162"/>
</linearGradient>
<linearGradient id="paint3_linear_14462_141784" x1="14.3514" y1="8.15556" x2="22.4735" y2="16.2777" gradientUnits="userSpaceOnUse">
<stop stop-color="#32A071"/>
<stop offset="0.0685" stop-color="#2DA771"/>
<stop offset="0.4762" stop-color="#15CF74"/>
<stop offset="0.8009" stop-color="#06E775"/>
<stop offset="1" stop-color="#00F076"/>
</linearGradient>
</defs>
</svg>
