<svg width="33" height="32" viewBox="0 0 33 32" fill="none" xmlns="http://www.w3.org/2000/svg">
    <path opacity="0.1" fill-rule="evenodd" clip-rule="evenodd"
        d="M0.5 16C0.5 7.16344 7.66344 0 16.5 0C25.3366 0 32.5 7.16344 32.5 16C32.5 24.8366 25.3366 32 16.5 32C7.66344 32 0.5 24.8366 0.5 16Z"
        fill="white" />
    <path fill-rule="evenodd" clip-rule="evenodd"
        d="M16.5009 7.46667C14.1834 7.46667 13.8925 7.47681 12.9823 7.51823C12.0739 7.55983 11.4538 7.70366 10.9112 7.91468C10.3499 8.13264 9.87384 8.4242 9.39952 8.89869C8.92485 9.37301 8.63329 9.8491 8.41462 10.4102C8.20307 10.9529 8.05906 11.5732 8.01818 12.4813C7.97746 13.3915 7.9668 13.6826 7.9668 16.0001C7.9668 18.3176 7.97711 18.6076 8.01835 19.5178C8.06013 20.4263 8.20395 21.0464 8.4148 21.589C8.63294 22.1502 8.9245 22.6263 9.39899 23.1006C9.87313 23.5753 10.3492 23.8676 10.9101 24.0855C11.4531 24.2965 12.0733 24.4404 12.9816 24.482C13.8918 24.5234 14.1825 24.5335 16.4999 24.5335C18.8176 24.5335 19.1075 24.5234 20.0178 24.482C20.9262 24.4404 21.547 24.2965 22.09 24.0855C22.651 23.8676 23.1264 23.5753 23.6006 23.1006C24.0752 22.6263 24.3668 22.1502 24.5855 21.5891C24.7952 21.0464 24.9392 20.4261 24.9819 19.518C25.0228 18.6078 25.0335 18.3176 25.0335 16.0001C25.0335 13.6826 25.0228 13.3917 24.9819 12.4815C24.9392 11.573 24.7952 10.9529 24.5855 10.4103C24.3668 9.8491 24.0752 9.37301 23.6006 8.89869C23.1259 8.42402 22.6512 8.13246 22.0894 7.91468C21.5454 7.70366 20.925 7.55983 20.0165 7.51823C19.1063 7.47681 18.8165 7.46667 16.4983 7.46667H16.5009ZM15.7354 9.00444C15.9626 9.00409 16.2161 9.00444 16.5009 9.00444C18.7793 9.00444 19.0494 9.01262 19.9491 9.05351C20.7811 9.09156 21.2327 9.23058 21.5335 9.34738C21.9317 9.50205 22.2156 9.68694 22.5141 9.98561C22.8128 10.2843 22.9977 10.5687 23.1527 10.967C23.2695 11.2674 23.4087 11.719 23.4466 12.551C23.4875 13.4505 23.4963 13.7208 23.4963 15.9981C23.4963 18.2755 23.4875 18.5457 23.4466 19.4453C23.4085 20.2773 23.2695 20.7288 23.1527 21.0293C22.998 21.4275 22.8128 21.7111 22.5141 22.0096C22.2154 22.3082 21.9319 22.4931 21.5335 22.6478C21.233 22.7651 20.7811 22.9038 19.9491 22.9418C19.0495 22.9827 18.7793 22.9916 16.5009 22.9916C14.2223 22.9916 13.9522 22.9827 13.0527 22.9418C12.2207 22.9034 11.7691 22.7644 11.4681 22.6476C11.0699 22.4929 10.7855 22.3081 10.4868 22.0094C10.1881 21.7107 10.0032 21.427 9.8482 21.0286C9.7314 20.7281 9.5922 20.2766 9.55433 19.4446C9.51344 18.545 9.50527 18.2748 9.50527 15.996C9.50527 13.7172 9.51344 13.4484 9.55433 12.5488C9.59238 11.7168 9.7314 11.2653 9.8482 10.9645C10.0029 10.5662 10.1881 10.2818 10.4868 9.98312C10.7855 9.68445 11.0699 9.49956 11.4681 9.34454C11.7689 9.2272 12.2207 9.08853 13.0527 9.05031C13.8399 9.01476 14.145 9.00409 15.7354 9.00231V9.00444ZM21.056 10.4214C20.4906 10.4214 20.032 10.8795 20.032 11.445C20.032 12.0103 20.4906 12.469 21.056 12.469C21.6213 12.469 22.08 12.0103 22.08 11.445C22.08 10.8797 21.6213 10.4214 21.056 10.4214ZM16.5009 11.6178C14.0808 11.6178 12.1187 13.58 12.1187 16.0001C12.1187 18.4202 14.0808 20.3815 16.5009 20.3815C18.9211 20.3815 20.8825 18.4202 20.8825 16.0001C20.8825 13.58 18.9211 11.6178 16.5009 11.6178ZM16.5009 13.1556C18.0718 13.1556 19.3454 14.429 19.3454 16.0001C19.3454 17.5709 18.0718 18.8445 16.5009 18.8445C14.9299 18.8445 13.6564 17.5709 13.6564 16.0001C13.6564 14.429 14.9299 13.1556 16.5009 13.1556Z"
        fill="white" />
</svg>