<svg width="15" height="18" viewBox="0 0 15 18" fill="none" xmlns="http://www.w3.org/2000/svg">
    <g clip-path="url(#clip0_14485_138025)">
        <path
            d="M8.25 11C8.25 10.7875 8.17825 10.6095 8.03475 10.466C7.89075 10.322 7.7125 10.25 7.5 10.25L5.1375 10.25L5.79375 9.575C5.93125 9.425 6 9.25 6 9.05C6 8.85 5.925 8.675 5.775 8.525C5.6375 8.3875 5.4625 8.31875 5.25 8.31875C5.0375 8.31875 4.8625 8.3875 4.725 8.525L2.775 10.475C2.6375 10.6125 2.56875 10.7875 2.56875 11C2.56875 11.2125 2.6375 11.3875 2.775 11.525L4.74375 13.4938C4.88125 13.6313 5.05 13.7 5.25 13.7C5.45 13.7 5.625 13.625 5.775 13.475C5.9125 13.3375 5.9845 13.1625 5.991 12.95C5.997 12.7375 5.925 12.5625 5.775 12.425L5.1375 11.75L7.51875 11.75C7.73125 11.75 7.90625 11.6783 8.04375 11.5348C8.18125 11.3908 8.25 11.2125 8.25 11ZM6.75 8C6.75 8.2125 6.822 8.39075 6.966 8.53475C7.1095 8.67825 7.2875 8.75 7.5 8.75L9.8625 8.75L9.20625 9.425C9.06875 9.575 9 9.75 9 9.95C9 10.15 9.075 10.325 9.225 10.475C9.3625 10.6125 9.5375 10.6813 9.75 10.6813C9.9625 10.6813 10.1375 10.6125 10.275 10.475L12.225 8.525C12.3625 8.3875 12.4312 8.2125 12.4312 8C12.4312 7.7875 12.3625 7.6125 12.225 7.475L10.2563 5.50625C10.1188 5.36875 9.95 5.3 9.75 5.3C9.55 5.3 9.375 5.375 9.225 5.525C9.0875 5.6625 9.0155 5.8375 9.009 6.05C9.003 6.2625 9.075 6.4375 9.225 6.575L9.8625 7.25L7.48125 7.25C7.26875 7.25 7.09375 7.322 6.95625 7.466C6.81875 7.6095 6.75 7.7875 6.75 8ZM6.25839e-07 9.5C6.71189e-07 8.4625 0.197001 7.4875 0.591001 6.575C0.984502 5.6625 1.51875 4.86875 2.19375 4.19375C2.86875 3.51875 3.6625 2.9845 4.575 2.591C5.4875 2.197 6.4625 2 7.5 2C8.5375 2 9.5125 2.197 10.425 2.591C11.3375 2.9845 12.1313 3.51875 12.8062 4.19375C13.4812 4.86875 14.0158 5.6625 14.4097 6.575C14.8032 7.4875 15 8.4625 15 9.5C15 10.5375 14.8032 11.5125 14.4097 12.425C14.0157 13.3375 13.4812 14.1313 12.8062 14.8063C12.1312 15.4813 11.3375 16.0155 10.425 16.409C9.5125 16.803 8.5375 17 7.5 17C6.4625 17 5.4875 16.803 4.575 16.409C3.6625 16.0155 2.86875 15.4813 2.19375 14.8063C1.51875 14.1313 0.984501 13.3375 0.591001 12.425C0.197001 11.5125 5.80488e-07 10.5375 6.25839e-07 9.5Z"
            fill="#0B8CAD" />
    </g>
    <defs>
        <clipPath id="clip0_14485_138025">
            <rect width="15" height="18" fill="white" transform="translate(0 0.000976562)" />
        </clipPath>
    </defs>
</svg>