<svg width="15" height="18" viewBox="0 0 15 18" fill="none" xmlns="http://www.w3.org/2000/svg">
    <path
        d="M0 5.62695C0 5.12967 0.197544 4.65276 0.549175 4.30113C0.900806 3.9495 1.37772 3.75195 1.875 3.75195H13.125C13.6223 3.75195 14.0992 3.9495 14.4508 4.30113C14.8025 4.65276 15 5.12967 15 5.62695V6.56445H0V5.62695ZM0 8.43945V13.127C0 13.6242 0.197544 14.1011 0.549175 14.4528C0.900806 14.8044 1.37772 15.002 1.875 15.002H13.125C13.6223 15.002 14.0992 14.8044 14.4508 14.4528C14.8025 14.1011 15 13.6242 15 13.127V8.43945H0ZM2.8125 10.3145H3.75C3.99864 10.3145 4.2371 10.4132 4.41291 10.589C4.58873 10.7649 4.6875 11.0033 4.6875 11.252V12.1895C4.6875 12.4381 4.58873 12.6765 4.41291 12.8524C4.2371 13.0282 3.99864 13.127 3.75 13.127H2.8125C2.56386 13.127 2.3254 13.0282 2.14959 12.8524C1.97377 12.6765 1.875 12.4381 1.875 12.1895V11.252C1.875 11.0033 1.97377 10.7649 2.14959 10.589C2.3254 10.4132 2.56386 10.3145 2.8125 10.3145Z"
        fill="#0B8CAD" />
</svg>