<svg width="32" height="32" viewBox="0 0 32 32" fill="none" xmlns="http://www.w3.org/2000/svg">
    <path opacity="0.1" fill-rule="evenodd" clip-rule="evenodd"
        d="M0 16C0 7.16344 7.16344 0 16 0C24.8366 0 32 7.16344 32 16C32 24.8366 24.8366 32 16 32C7.16344 32 0 24.8366 0 16Z"
        fill="white" />
    <path
        d="M16.1525 24.7886C16.1025 24.7886 16.0547 24.7867 16.0184 24.785C15.9896 24.7875 15.9599 24.7886 15.9301 24.7886C14.8787 24.7886 14.1758 24.2916 13.5554 23.8527C13.1108 23.5386 12.6915 23.2421 12.2002 23.1604C11.959 23.1204 11.719 23.1001 11.4871 23.1001C11.0693 23.1001 10.7391 23.1649 10.498 23.212C10.3496 23.2409 10.2217 23.2658 10.1228 23.2658C10.0193 23.2658 9.89348 23.2428 9.84105 23.0638C9.79949 22.9226 9.76969 22.7858 9.74092 22.654C9.66895 22.3247 9.61675 22.1238 9.49347 22.1047C8.17487 21.9012 7.39578 21.6015 7.24059 21.2386C7.22433 21.2005 7.21524 21.1621 7.21323 21.1241C7.20718 21.0159 7.28356 20.921 7.3902 20.9034C8.43736 20.7309 9.36845 20.1775 10.1578 19.2578C10.7692 18.5458 11.0695 17.8656 11.1017 17.7904C11.1031 17.7871 11.1047 17.7835 11.1064 17.7803C11.2586 17.4716 11.2888 17.2048 11.1967 16.9876C11.0268 16.587 10.4641 16.4084 10.0918 16.2903C9.99919 16.261 9.91162 16.2333 9.84185 16.2056C9.51184 16.0752 8.96909 15.7998 9.04139 15.4197C9.09406 15.1425 9.46071 14.9494 9.75704 14.9494C9.83932 14.9494 9.91223 14.9638 9.97361 14.9927C10.3084 15.1495 10.6097 15.2291 10.8688 15.2291C11.191 15.2291 11.3466 15.1064 11.3842 15.0715C11.3749 14.8997 11.3636 14.7179 11.3526 14.5461C11.3526 14.5459 11.3524 14.5438 11.3524 14.5438C11.2767 13.3408 11.1824 11.8436 11.5654 10.985C12.7116 8.41509 15.1424 8.21524 15.8599 8.21524C15.879 8.21524 16.1726 8.21234 16.1726 8.21234C16.1858 8.2121 16.2002 8.21191 16.2151 8.21191C16.9346 8.21191 19.3704 8.41199 20.5173 10.9835C20.9003 11.8426 20.8059 13.3411 20.73 14.5454L20.7265 14.603C20.7161 14.7665 20.7065 14.9213 20.6984 15.0713C20.7338 15.104 20.8762 15.2164 21.1659 15.2278C21.4129 15.2183 21.6967 15.1392 22.0092 14.9929C22.1058 14.9475 22.2128 14.9381 22.2854 14.9381C22.3952 14.9381 22.5069 14.9594 22.6 14.9983L22.605 15.0002C22.8702 15.0943 23.0439 15.2825 23.0477 15.4801C23.051 15.6644 22.9141 15.9397 22.2406 16.2057C22.1717 16.233 22.0837 16.2609 21.9907 16.2904C21.6181 16.4087 21.0559 16.5871 20.886 16.9875C20.7937 17.2047 20.824 17.4714 20.9762 17.78C20.9779 17.7834 20.9794 17.7868 20.981 17.7903C21.0278 17.9002 22.162 20.4863 24.6925 20.9031C24.7991 20.9209 24.8756 21.0159 24.8695 21.1239C24.8673 21.1627 24.8579 21.2015 24.8415 21.2394C24.6874 21.6003 23.9083 21.8996 22.5894 22.1033C22.4656 22.1225 22.4134 22.3225 22.3421 22.6501C22.3126 22.7853 22.2825 22.9179 22.2415 23.0573C22.2032 23.1884 22.1178 23.2524 21.9807 23.2524H21.96C21.8708 23.2524 21.7443 23.2362 21.5848 23.205C21.306 23.1507 20.9933 23.1002 20.5957 23.1002C20.3638 23.1002 20.1239 23.1206 19.8823 23.1605C19.3916 23.2422 18.9723 23.5383 18.5285 23.852C17.9069 24.2915 17.2038 24.7886 16.1525 24.7886Z"
        fill="white" />
    <path
        d="M16.2142 8.42349C16.8915 8.42349 19.2238 8.60544 20.3229 11.0696C20.6849 11.881 20.5921 13.3509 20.5177 14.5316C20.5061 14.719 20.4945 14.9006 20.4852 15.074L20.4812 15.1486L20.531 15.2041C20.5511 15.2264 20.7392 15.423 21.1577 15.4392L21.1644 15.4396L21.1714 15.4394C21.4481 15.4289 21.7597 15.3429 22.0981 15.1844C22.1479 15.1611 22.2143 15.1497 22.2845 15.1497C22.3645 15.1497 22.4495 15.1647 22.5196 15.1943L22.5301 15.1985C22.7076 15.2607 22.833 15.3779 22.8349 15.484C22.836 15.544 22.7911 15.76 22.1621 16.0085C22.1007 16.0328 22.0197 16.0586 21.9259 16.0882C21.5166 16.2181 20.8982 16.4143 20.69 16.9047C20.5728 17.181 20.6049 17.507 20.7853 17.8736C20.8596 18.0469 22.028 20.6787 24.6572 21.112C24.6566 21.1244 24.6535 21.1381 24.6464 21.1541C24.6019 21.2591 24.3186 21.6217 22.5561 21.8937C22.2803 21.9359 22.2127 22.2451 22.1343 22.6045C22.106 22.7332 22.0773 22.863 22.0377 22.9972C22.0256 23.0377 22.0234 23.04 21.9799 23.04C21.974 23.04 21.9669 23.04 21.9592 23.04C21.8811 23.04 21.7624 23.0238 21.6249 22.9968C21.3745 22.948 21.0323 22.8882 20.5949 22.8882C20.3508 22.8882 20.0993 22.9094 19.847 22.9516C19.3076 23.0412 18.869 23.3515 18.4044 23.6799C17.7806 24.1207 17.1358 24.5768 16.152 24.5768C16.109 24.5768 16.0671 24.5754 16.025 24.5733L16.014 24.5728L16.0029 24.5737C15.9788 24.5758 15.9544 24.5768 15.9296 24.5768C14.9459 24.5768 14.3009 24.1208 13.6773 23.6799C13.2127 23.3515 12.7738 23.0412 12.2345 22.9516C11.9824 22.9096 11.7307 22.8882 11.4867 22.8882C11.0494 22.8882 10.7068 22.9551 10.4569 23.004C10.3194 23.0309 10.2003 23.0539 10.1224 23.0539C10.0586 23.0539 10.0574 23.0502 10.0439 23.0041C10.0043 22.8698 9.97541 22.7369 9.94725 22.6084C9.86871 22.2486 9.8011 21.9378 9.52544 21.8955C7.76301 21.6233 7.47972 21.26 7.43501 21.1553C7.42803 21.1389 7.42489 21.1248 7.42419 21.1123C10.0533 20.6795 11.2215 18.0475 11.296 17.8736C11.4767 17.5073 11.5088 17.1813 11.3912 16.9047C11.183 16.4146 10.5647 16.2181 10.1557 16.0884C10.0616 16.0586 9.98065 16.0328 9.91913 16.0085C9.38796 15.7986 9.22457 15.5872 9.24884 15.4591C9.277 15.3114 9.53312 15.1611 9.75663 15.1611C9.80686 15.1611 9.85091 15.1692 9.88347 15.1845C10.2465 15.3546 10.5778 15.4409 10.8685 15.4409C11.3254 15.4409 11.5288 15.2283 11.5506 15.204L11.6001 15.1486L11.5961 15.0745C11.5869 14.9011 11.5755 14.7196 11.5635 14.5326C11.4894 13.3515 11.3966 11.8827 11.7584 11.0712C12.8534 8.61607 15.1744 8.42682 15.8595 8.42682C15.8764 8.42682 16.1742 8.42377 16.1742 8.42377C16.1864 8.42368 16.2 8.42349 16.2142 8.42349ZM16.2142 8H16.2134C16.1978 8 16.1831 8 16.1691 8.00019C16.0578 8.00131 15.8748 8.00309 15.8583 8.00328C15.457 8.00328 14.6539 8.05998 13.7912 8.44074C13.298 8.65829 12.8544 8.95246 12.4727 9.31508C12.0176 9.74715 11.6469 10.2799 11.371 10.8987C10.9669 11.8047 11.0629 13.3308 11.1399 14.5572L11.1402 14.5591C11.1484 14.6904 11.1571 14.8276 11.165 14.9612C11.1057 14.9884 11.0096 15.0171 10.868 15.0171C10.6401 15.0171 10.3691 14.9443 10.0627 14.8007C9.9725 14.7587 9.8696 14.7375 9.75607 14.7375C9.57366 14.7375 9.38136 14.7912 9.21454 14.8893C9.00467 15.0125 8.86907 15.1867 8.83224 15.3798C8.80797 15.5075 8.80914 15.76 9.08958 16.016C9.24383 16.1569 9.47043 16.2869 9.76291 16.4025C9.83966 16.4327 9.93075 16.4616 10.0272 16.4922C10.362 16.5986 10.8687 16.7594 11.0009 17.0704C11.0678 17.228 11.039 17.4355 10.9154 17.6863C10.9122 17.6931 10.909 17.6998 10.906 17.7069C10.8752 17.779 10.5871 18.4315 9.99616 19.1197C9.66039 19.511 9.29055 19.8381 8.89751 20.0921C8.41779 20.4021 7.89871 20.6048 7.35484 20.6944C7.14127 20.7295 6.98875 20.9198 7.00065 21.136C7.00431 21.1983 7.01893 21.2604 7.04427 21.3206C7.04446 21.3209 7.0447 21.3213 7.04488 21.3216C7.13124 21.5236 7.33146 21.6952 7.65698 21.8466C8.05474 22.0313 8.64964 22.1868 9.42498 22.3084C9.46415 22.3829 9.50482 22.5701 9.53298 22.6983C9.56246 22.8346 9.59319 22.9747 9.63701 23.1235C9.68428 23.2847 9.80691 23.4774 10.1219 23.4774C10.2413 23.4774 10.3786 23.4505 10.5376 23.4197C10.7704 23.374 11.0888 23.3117 11.4862 23.3117C11.7065 23.3117 11.9349 23.3311 12.1647 23.3692C12.6077 23.443 12.9897 23.7128 13.4316 24.0252C14.0784 24.4825 14.8105 25 15.9291 25C15.9596 25 15.9902 24.999 16.0205 24.9969C16.0574 24.9986 16.1033 25 16.1516 25C17.2706 25 18.0025 24.4823 18.6486 24.0254L18.6496 24.0245C19.0916 23.7124 19.4732 23.443 19.916 23.3692C20.1458 23.3311 20.3741 23.3117 20.5945 23.3117C20.9741 23.3117 21.2747 23.3601 21.5431 23.4124C21.7183 23.4469 21.8544 23.4635 21.9588 23.4635L21.969 23.4637H21.9796C22.21 23.4637 22.3793 23.3372 22.4439 23.1159C22.4868 22.9702 22.5175 22.8334 22.5477 22.6948C22.574 22.5747 22.6161 22.3821 22.6553 22.3068C23.4312 22.185 24.0258 22.0299 24.4236 21.8452C24.7484 21.6945 24.9484 21.5231 25.0352 21.322C25.0613 21.2617 25.0765 21.1992 25.08 21.1355C25.0922 20.9197 24.9394 20.729 24.7257 20.6939C22.3086 20.2956 21.2197 17.812 21.1747 17.7064C21.1718 17.6995 21.1685 17.6926 21.1651 17.6859C21.0415 17.4351 21.013 17.2278 21.08 17.0698C21.2118 16.7591 21.7182 16.5984 22.0532 16.492C22.1502 16.4615 22.2416 16.4324 22.3178 16.4023C22.6476 16.2721 22.8834 16.1307 23.0389 15.9703C23.2246 15.7789 23.2608 15.5956 23.2585 15.4757C23.2529 15.1855 23.031 14.9276 22.6781 14.8013C22.5589 14.752 22.4229 14.726 22.2845 14.726C22.1903 14.726 22.0507 14.7389 21.9187 14.8006C21.6359 14.9329 21.3826 15.0052 21.1651 15.0156C21.0495 15.0097 20.9684 14.9846 20.9158 14.9607C20.9224 14.8475 20.9297 14.7312 20.9373 14.6099L20.9404 14.558C21.0179 13.3308 21.1141 11.8036 20.7099 10.8969C20.4328 10.2759 20.0608 9.74181 19.6039 9.30881C19.2207 8.94595 18.7755 8.65183 18.2806 8.43441C17.4191 8.05646 16.6161 8 16.2142 8Z"
        fill="#020202" />
</svg>