<svg width="33" height="33" viewBox="0 0 33 33" fill="none" xmlns="http://www.w3.org/2000/svg">
    <path opacity="0.1" fill-rule="evenodd" clip-rule="evenodd"
        d="M0.5 16.4102C0.5 7.5736 7.66344 0.410156 16.5 0.410156C25.3366 0.410156 32.5 7.5736 32.5 16.4102C32.5 25.2467 25.3366 32.4102 16.5 32.4102C7.66344 32.4102 0.5 25.2467 0.5 16.4102Z"
        fill="white" />
    <path
        d="M21.2973 10.0845C21.2973 10.0845 21.7809 10.5586 21.2973 10.0845C20.649 9.3444 20.2918 8.39399 20.292 7.41016H17.3617V19.1695C17.3391 19.8058 17.0704 20.4086 16.6123 20.8508C16.1541 21.293 15.5423 21.5402 14.9055 21.5403C13.5589 21.5403 12.4398 20.4403 12.4398 19.0747C12.4398 17.4435 14.0141 16.2202 15.6357 16.7228V13.7261C12.364 13.2898 9.5 15.8314 9.5 19.0747C9.5 22.2326 12.1174 24.4802 14.896 24.4802C17.8738 24.4802 20.292 22.0619 20.292 19.0747V13.1096C21.4803 13.963 22.9069 14.4208 24.3699 14.4183V11.488C24.3699 11.488 22.587 11.5733 21.2973 10.0845Z"
        fill="white" />
</svg>