<svg width="32" height="32" viewBox="0 0 32 32" fill="none" xmlns="http://www.w3.org/2000/svg">
    <path
        d="M13.3359 17.3333C13.3359 18.0693 13.9347 18.6667 14.6693 18.6667H17.3359C18.0704 18.6667 18.6692 18.0693 18.6692 17.3333V16H13.3359V17.3333Z"
        fill="#2996DB" />
    <path
        d="M32 17.3334V14.6667H29.1705C29.0253 13.22 28.6372 11.848 28.0625 10.576L30.5226 9.15602L29.1893 6.84677L26.7238 8.26939C25.8917 7.11998 24.8813 6.10924 23.7304 5.2774L25.1545 2.81074L22.8452 1.47741L21.4253 3.93873C20.1533 3.36284 18.7801 2.97325 17.3334 2.82948V0H14.6667V2.82948C13.22 2.97352 11.8468 3.36281 10.576 3.93751L9.15605 1.47619L6.84681 2.80952L8.27087 5.27618C7.12025 6.10833 6.11074 7.11754 5.2789 8.26817L2.81072 6.84524L1.4774 9.15449L3.9375 10.5732C3.3628 11.8468 2.97468 13.2199 2.82947 14.6667H0V17.3334H2.82947C2.9747 18.7801 3.3628 20.1521 3.9375 21.4241L1.47618 22.8441L2.8095 25.1533L5.27615 23.7307C6.1083 24.8801 7.11873 25.8908 8.26958 26.7227L6.84551 29.1893L9.15475 30.5227L10.5747 28.0613C11.8467 28.636 13.2199 29.0253 14.6654 29.1694V32H17.3321V29.1705C18.7773 29.0265 20.1508 28.6372 21.4228 28.0625L22.8427 30.5238L25.152 29.1905L23.7279 26.7238C24.8785 25.8917 25.8892 24.8812 26.7213 23.7304L29.188 25.1545L30.5213 22.8452L28.0612 21.4252C28.6359 20.1532 29.024 18.7812 29.1692 17.3345H31.9998L32 17.3334ZM21.3334 17.3334C21.3334 19.5387 19.5388 21.3334 17.3334 21.3334V25.3333H14.6668V21.3334C12.4615 21.3334 10.6668 19.5387 10.6668 17.3334V13.3334H12.0001V10.6667H14.6668V13.3334H17.3334V10.6667H20.0001V13.3334H21.3334V17.3334Z"
        fill="#2996DB" />
</svg>